<svg xmlns="http://www.w3.org/2000/svg" viewBox="0 0 400 290" width="400" height="290">
  <!-- Background -->
  <rect width="400" height="290" fill="#0d0d0d"/>
  <!-- Outer glow border -->
  <rect x="1" y="1" width="398" height="288" rx="14" fill="none" stroke="#00d4aa" stroke-width="0.6" opacity="0.25"/>
  <!-- Card -->
  <rect x="6" y="6" width="388" height="278" rx="12" fill="#131313" stroke="#222222" stroke-width="1"/>

  <!-- Chip pins -->
  <rect x="118" y="82" width="18" height="9" rx="2.5" fill="#00d4aa44" stroke="#00d4aa88" stroke-width="0.7"/><rect x="118" y="104" width="18" height="9" rx="2.5" fill="#00d4aa44" stroke="#00d4aa88" stroke-width="0.7"/><rect x="118" y="126" width="18" height="9" rx="2.5" fill="#00d4aa44" stroke="#00d4aa88" stroke-width="0.7"/><rect x="118" y="148" width="18" height="9" rx="2.5" fill="#00d4aa44" stroke="#00d4aa88" stroke-width="0.7"/><rect x="264" y="82" width="18" height="9" rx="2.5" fill="#00d4aa44" stroke="#00d4aa88" stroke-width="0.7"/><rect x="264" y="104" width="18" height="9" rx="2.5" fill="#00d4aa44" stroke="#00d4aa88" stroke-width="0.7"/><rect x="264" y="126" width="18" height="9" rx="2.5" fill="#00d4aa44" stroke="#00d4aa88" stroke-width="0.7"/><rect x="264" y="148" width="18" height="9" rx="2.5" fill="#00d4aa44" stroke="#00d4aa88" stroke-width="0.7"/><rect x="148" y="42" width="9" height="18" rx="2.5" fill="#00d4aa44" stroke="#00d4aa88" stroke-width="0.7"/><rect x="170" y="42" width="9" height="18" rx="2.5" fill="#00d4aa44" stroke="#00d4aa88" stroke-width="0.7"/><rect x="192" y="42" width="9" height="18" rx="2.5" fill="#00d4aa44" stroke="#00d4aa88" stroke-width="0.7"/><rect x="214" y="42" width="9" height="18" rx="2.5" fill="#00d4aa44" stroke="#00d4aa88" stroke-width="0.7"/><rect x="148" y="200" width="9" height="18" rx="2.5" fill="#00d4aa44" stroke="#00d4aa88" stroke-width="0.7"/><rect x="170" y="200" width="9" height="18" rx="2.5" fill="#00d4aa44" stroke="#00d4aa88" stroke-width="0.7"/><rect x="192" y="200" width="9" height="18" rx="2.5" fill="#00d4aa44" stroke="#00d4aa88" stroke-width="0.7"/><rect x="214" y="200" width="9" height="18" rx="2.5" fill="#00d4aa44" stroke="#00d4aa88" stroke-width="0.7"/>

  <!-- Chip body -->
  <rect x="136" y="60" width="128" height="140" rx="8" fill="#1a1a1a" stroke="#00d4aa" stroke-width="1.8"/>
  <!-- Chip inner area -->
  <rect x="144" y="68" width="112" height="124" rx="4" fill="#0e0e0e" stroke="#00d4aa2a" stroke-width="0.8"/>
  <!-- Grid -->
  <line x1="140" y1="90" x2="260" y2="90" stroke="#00d4aa18" stroke-width="0.8"/><line x1="140" y1="116" x2="260" y2="116" stroke="#00d4aa18" stroke-width="0.8"/><line x1="140" y1="142" x2="260" y2="142" stroke="#00d4aa18" stroke-width="0.8"/><line x1="170" y1="62" x2="170" y2="198" stroke="#00d4aa18" stroke-width="0.8"/><line x1="196" y1="62" x2="196" y2="198" stroke="#00d4aa18" stroke-width="0.8"/><line x1="222" y1="62" x2="222" y2="198" stroke="#00d4aa18" stroke-width="0.8"/>

  <!-- LED dots corner -->
  <circle cx="154" cy="78" r="3.5" fill="#00d4aa" opacity="0.9"/>
  <circle cx="165" cy="78" r="3.5" fill="#00c853" opacity="0.7"/>
  <circle cx="176" cy="78" r="3.5" fill="#1a1a1a" opacity="0.4"/>

  <!-- ASIC label -->
  <text x="200" y="122" text-anchor="middle" font-family="monospace" font-size="13" font-weight="700" fill="#00d4aa" letter-spacing="2">ASIC</text>
  <text x="200" y="140" text-anchor="middle" font-family="monospace" font-size="8" fill="#00d4aa66" letter-spacing="1">SHA-256</text>

  

  <!-- Divider -->
  <line x1="30" y1="215" x2="370" y2="215" stroke="#1e1e1e" stroke-width="1"/>

  <!-- Model label -->
  <text x="200" y="236" text-anchor="middle" font-family="'Courier New', monospace" font-size="15" font-weight="700" fill="#ffffff" letter-spacing="0.5">M70S</text>

  <!-- Stats row -->
  
    <text x="110" y="250" text-anchor="middle" font-family="monospace" font-size="11" fill="#00d4aa" font-weight="600">240 TH/s</text>
    <text x="200" y="250" text-anchor="middle" font-family="monospace" font-size="11" fill="#555">·</text>
    <text x="290" y="250" text-anchor="middle" font-family="monospace" font-size="11" fill="#00d4aa" font-weight="600">14.0 J/TH</text>
  

  <!-- Manufacturer -->
  <text x="200" y="276" text-anchor="middle" font-family="monospace" font-size="8" fill="#3a3a3a" letter-spacing="2">MICROBT</text>
</svg>